<?xml version="1.0" encoding="UTF-8"?>
<svg xmlns="http://www.w3.org/2000/svg" width="2280" height="1120" viewBox="0 0 2280 1120">
<defs>
<filter id="shadow" x="-20%" y="-20%" width="140%" height="140%">
<feDropShadow dx="0" dy="6" stdDeviation="8" flood-color="#000000" flood-opacity="0.14" />
</filter>
<marker id="arrow" markerWidth="10" markerHeight="10" refX="9" refY="5" orient="auto">
<path d="M 0 0 L 10 5 L 0 10 z" fill="#6a4a3c" />
</marker>
</defs>
<rect width="2280" height="1120" fill="#f8f3ea" />
<text x="40" y="1010" font-size="34" font-weight="700" fill="#241c1c">Distributed Compute Marketplace Schema</text>
<text x="40" y="1046" font-size="18" fill="#4c3b3b">Core entities, key relationships, OLTP indexes, transaction flows, and design notes.</text>
<path d="M 190 250 L 190 216" fill="none" stroke="#6a4a3c" stroke-width="3" marker-end="url(#arrow)" opacity="0.92" />
<rect x="172" y="209" width="44" height="24" rx="12" fill="#fff9f0" stroke="#6a4a3c" stroke-width="1.5" />
<text x="183" y="226" font-size="13" font-weight="700" fill="#6a4a3c">1:1</text>
<path d="M 380 116 L 360 116 L 360 128 L 340 128" fill="none" stroke="#6a4a3c" stroke-width="3" marker-end="url(#arrow)" opacity="0.92" />
<rect x="342" y="98" width="44" height="24" rx="12" fill="#fff9f0" stroke="#6a4a3c" stroke-width="1.5" />
<text x="353" y="115" font-size="13" font-weight="700" fill="#6a4a3c">N:1</text>
<path d="M 190 510 L 190 216" fill="none" stroke="#6a4a3c" stroke-width="3" marker-end="url(#arrow)" opacity="0.92" />
<rect x="172" y="339" width="44" height="24" rx="12" fill="#fff9f0" stroke="#6a4a3c" stroke-width="1.5" />
<text x="183" y="356" font-size="13" font-weight="700" fill="#6a4a3c">N:1</text>
<path d="M 190 760 L 190 216" fill="none" stroke="#6a4a3c" stroke-width="3" marker-end="url(#arrow)" opacity="0.92" />
<rect x="172" y="464" width="44" height="24" rx="12" fill="#fff9f0" stroke="#6a4a3c" stroke-width="1.5" />
<text x="183" y="481" font-size="13" font-weight="700" fill="#6a4a3c">N:1</text>
<path d="M 530 230 L 530 192" fill="none" stroke="#6a4a3c" stroke-width="3" marker-end="url(#arrow)" opacity="0.92" />
<rect x="512" y="187" width="44" height="24" rx="12" fill="#fff9f0" stroke="#6a4a3c" stroke-width="1.5" />
<text x="523" y="204" font-size="13" font-weight="700" fill="#6a4a3c">1:1</text>
<path d="M 530 470 L 530 192" fill="none" stroke="#6a4a3c" stroke-width="3" marker-end="url(#arrow)" opacity="0.92" />
<rect x="512" y="307" width="44" height="24" rx="12" fill="#fff9f0" stroke="#6a4a3c" stroke-width="1.5" />
<text x="523" y="324" font-size="13" font-weight="700" fill="#6a4a3c">1:1</text>
<path d="M 720 128 L 340 128" fill="none" stroke="#6a4a3c" stroke-width="3" marker-end="url(#arrow)" opacity="0.92" />
<rect x="512" y="104" width="44" height="24" rx="12" fill="#fff9f0" stroke="#6a4a3c" stroke-width="1.5" />
<text x="523" y="121" font-size="13" font-weight="700" fill="#6a4a3c">N:1</text>
<path d="M 870 250 L 870 216" fill="none" stroke="#6a4a3c" stroke-width="3" marker-end="url(#arrow)" opacity="0.92" />
<rect x="852" y="209" width="44" height="24" rx="12" fill="#fff9f0" stroke="#6a4a3c" stroke-width="1.5" />
<text x="863" y="226" font-size="13" font-weight="700" fill="#6a4a3c">1:1</text>
<path d="M 1060 164 L 1040 164 L 1040 128 L 1020 128" fill="none" stroke="#6a4a3c" stroke-width="3" marker-end="url(#arrow)" opacity="0.92" />
<rect x="1022" y="122" width="44" height="24" rx="12" fill="#fff9f0" stroke="#6a4a3c" stroke-width="1.5" />
<text x="1033" y="139" font-size="13" font-weight="700" fill="#6a4a3c">N:1</text>
<path d="M 1060 164 L 870 164 L 870 116 L 680 116" fill="none" stroke="#6a4a3c" stroke-width="3" marker-end="url(#arrow)" opacity="0.92" />
<rect x="852" y="116" width="44" height="24" rx="12" fill="#fff9f0" stroke="#6a4a3c" stroke-width="1.5" />
<text x="863" y="133" font-size="13" font-weight="700" fill="#6a4a3c">N:1</text>
<path d="M 1400 128 L 1380 128 L 1380 164 L 1360 164" fill="none" stroke="#6a4a3c" stroke-width="3" marker-end="url(#arrow)" opacity="0.92" />
<rect x="1362" y="122" width="44" height="24" rx="12" fill="#fff9f0" stroke="#6a4a3c" stroke-width="1.5" />
<text x="1373" y="139" font-size="13" font-weight="700" fill="#6a4a3c">1:1</text>
<path d="M 1400 338 L 1380 338 L 1380 164 L 1360 164" fill="none" stroke="#6a4a3c" stroke-width="3" marker-end="url(#arrow)" opacity="0.92" />
<rect x="1362" y="227" width="44" height="24" rx="12" fill="#fff9f0" stroke="#6a4a3c" stroke-width="1.5" />
<text x="1373" y="244" font-size="13" font-weight="700" fill="#6a4a3c">1:1</text>
<path d="M 1400 570 L 1380 570 L 1380 164 L 1360 164" fill="none" stroke="#6a4a3c" stroke-width="3" marker-end="url(#arrow)" opacity="0.92" />
<rect x="1362" y="343" width="44" height="24" rx="12" fill="#fff9f0" stroke="#6a4a3c" stroke-width="1.5" />
<text x="1373" y="360" font-size="13" font-weight="700" fill="#6a4a3c">N:1</text>
<path d="M 1400 786 L 1380 786 L 1380 164 L 1360 164" fill="none" stroke="#6a4a3c" stroke-width="3" marker-end="url(#arrow)" opacity="0.92" />
<rect x="1362" y="451" width="44" height="24" rx="12" fill="#fff9f0" stroke="#6a4a3c" stroke-width="1.5" />
<text x="1373" y="468" font-size="13" font-weight="700" fill="#6a4a3c">N:1</text>
<path d="M 1210 320 L 1210 288" fill="none" stroke="#6a4a3c" stroke-width="3" marker-end="url(#arrow)" opacity="0.92" />
<rect x="1192" y="280" width="44" height="24" rx="12" fill="#fff9f0" stroke="#6a4a3c" stroke-width="1.5" />
<text x="1203" y="297" font-size="13" font-weight="700" fill="#6a4a3c">1:1</text>
<g filter="url(#shadow)">
<rect x="40" y="40" width="300" height="176" rx="18" fill="#fffaf2" stroke="#3c2f2f" stroke-width="2" />
<rect x="40" y="40" width="300" height="46" rx="18" fill="#d66b4d" stroke="#3c2f2f" stroke-width="2" />
<rect x="40" y="68" width="300" height="18" fill="#d66b4d" stroke="none" />
<text x="58" y="69" font-size="24" font-weight="700" fill="#fffdf8">users</text>
<line x1="40" y1="86" x2="340" y2="86" stroke="#3c2f2f" stroke-width="2" />
<text x="58" y="115" font-size="16" fill="#211a1a">id (PK)</text>
<text x="58" y="139" font-size="16" fill="#211a1a">email (UNIQUE)</text>
<text x="58" y="163" font-size="16" fill="#211a1a">password_hash</text>
<text x="58" y="187" font-size="16" fill="#211a1a">role {buyer|provider|admin}</text>
<text x="58" y="211" font-size="16" fill="#211a1a">created_at</text>
<rect x="40" y="250" width="300" height="152" rx="18" fill="#fffaf2" stroke="#3c2f2f" stroke-width="2" />
<rect x="40" y="250" width="300" height="46" rx="18" fill="#d66b4d" stroke="#3c2f2f" stroke-width="2" />
<rect x="40" y="278" width="300" height="18" fill="#d66b4d" stroke="none" />
<text x="58" y="279" font-size="24" font-weight="700" fill="#fffdf8">profiles</text>
<line x1="40" y1="296" x2="340" y2="296" stroke="#3c2f2f" stroke-width="2" />
<text x="58" y="325" font-size="16" fill="#211a1a">user_id (PK, FK -&gt; users.id)</text>
<text x="58" y="349" font-size="16" fill="#211a1a">name</text>
<text x="58" y="373" font-size="16" fill="#211a1a">organization</text>
<text x="58" y="397" font-size="16" fill="#211a1a">balance</text>
<rect x="380" y="40" width="300" height="152" rx="18" fill="#fffaf2" stroke="#3c2f2f" stroke-width="2" />
<rect x="380" y="40" width="300" height="46" rx="18" fill="#d66b4d" stroke="#3c2f2f" stroke-width="2" />
<rect x="380" y="68" width="300" height="18" fill="#d66b4d" stroke="none" />
<text x="398" y="69" font-size="24" font-weight="700" fill="#fffdf8">nodes</text>
<line x1="380" y1="86" x2="680" y2="86" stroke="#3c2f2f" stroke-width="2" />
<text x="398" y="115" font-size="16" fill="#211a1a">id (PK)</text>
<text x="398" y="139" font-size="16" fill="#211a1a">provider_id (FK -&gt; users.id)</text>
<text x="398" y="163" font-size="16" fill="#211a1a">status {online|offline|busy}</text>
<text x="398" y="187" font-size="16" fill="#211a1a">created_at</text>
<rect x="380" y="230" width="300" height="200" rx="18" fill="#fffaf2" stroke="#3c2f2f" stroke-width="2" />
<rect x="380" y="230" width="300" height="46" rx="18" fill="#d66b4d" stroke="#3c2f2f" stroke-width="2" />
<rect x="380" y="258" width="300" height="18" fill="#d66b4d" stroke="none" />
<text x="398" y="259" font-size="24" font-weight="700" fill="#fffdf8">node_specs</text>
<line x1="380" y1="276" x2="680" y2="276" stroke="#3c2f2f" stroke-width="2" />
<text x="398" y="305" font-size="16" fill="#211a1a">node_id (PK, FK -&gt; nodes.id)</text>
<text x="398" y="329" font-size="16" fill="#211a1a">cpu_cores</text>
<text x="398" y="353" font-size="16" fill="#211a1a">ram_gb</text>
<text x="398" y="377" font-size="16" fill="#211a1a">gpu_model</text>
<text x="398" y="401" font-size="16" fill="#211a1a">gpu_vram_gb</text>
<text x="398" y="425" font-size="16" fill="#211a1a">disk_gb</text>
<rect x="380" y="470" width="300" height="152" rx="18" fill="#fffaf2" stroke="#3c2f2f" stroke-width="2" />
<rect x="380" y="470" width="300" height="46" rx="18" fill="#d66b4d" stroke="#3c2f2f" stroke-width="2" />
<rect x="380" y="498" width="300" height="18" fill="#d66b4d" stroke="none" />
<text x="398" y="499" font-size="24" font-weight="700" fill="#fffdf8">node_pricing</text>
<line x1="380" y1="516" x2="680" y2="516" stroke="#3c2f2f" stroke-width="2" />
<text x="398" y="545" font-size="16" fill="#211a1a">node_id (PK, FK -&gt; nodes.id)</text>
<text x="398" y="569" font-size="16" fill="#211a1a">price_cpu_hour</text>
<text x="398" y="593" font-size="16" fill="#211a1a">price_gpu_hour</text>
<text x="398" y="617" font-size="16" fill="#211a1a">price_ram_gb_hour</text>
<rect x="720" y="40" width="300" height="176" rx="18" fill="#fffaf2" stroke="#3c2f2f" stroke-width="2" />
<rect x="720" y="40" width="300" height="46" rx="18" fill="#d66b4d" stroke="#3c2f2f" stroke-width="2" />
<rect x="720" y="68" width="300" height="18" fill="#d66b4d" stroke="none" />
<text x="738" y="69" font-size="24" font-weight="700" fill="#fffdf8">tasks</text>
<line x1="720" y1="86" x2="1020" y2="86" stroke="#3c2f2f" stroke-width="2" />
<text x="738" y="115" font-size="16" fill="#211a1a">id (PK)</text>
<text x="738" y="139" font-size="16" fill="#211a1a">user_id (FK -&gt; users.id)</text>
<text x="738" y="163" font-size="16" fill="#211a1a">status {created|running|completed|failed}</text>
<text x="738" y="187" font-size="16" fill="#211a1a">total_cost</text>
<text x="738" y="211" font-size="16" fill="#211a1a">created_at</text>
<rect x="720" y="250" width="300" height="176" rx="18" fill="#fffaf2" stroke="#3c2f2f" stroke-width="2" />
<rect x="720" y="250" width="300" height="46" rx="18" fill="#d66b4d" stroke="#3c2f2f" stroke-width="2" />
<rect x="720" y="278" width="300" height="18" fill="#d66b4d" stroke="none" />
<text x="738" y="279" font-size="24" font-weight="700" fill="#fffdf8">task_configs</text>
<line x1="720" y1="296" x2="1020" y2="296" stroke="#3c2f2f" stroke-width="2" />
<text x="738" y="325" font-size="16" fill="#211a1a">task_id (PK, FK -&gt; tasks.id)</text>
<text x="738" y="349" font-size="16" fill="#211a1a">solver_type (OpenFOAM, etc.)</text>
<text x="738" y="373" font-size="16" fill="#211a1a">parameters_json</text>
<text x="738" y="397" font-size="16" fill="#211a1a">docker_image</text>
<text x="738" y="421" font-size="16" fill="#211a1a">estimated_cost</text>
<rect x="1060" y="40" width="300" height="248" rx="18" fill="#fffaf2" stroke="#3c2f2f" stroke-width="2" />
<rect x="1060" y="40" width="300" height="46" rx="18" fill="#d66b4d" stroke="#3c2f2f" stroke-width="2" />
<rect x="1060" y="68" width="300" height="18" fill="#d66b4d" stroke="none" />
<text x="1078" y="69" font-size="24" font-weight="700" fill="#fffdf8">jobs</text>
<line x1="1060" y1="86" x2="1360" y2="86" stroke="#3c2f2f" stroke-width="2" />
<text x="1078" y="115" font-size="16" fill="#211a1a">id (PK)</text>
<text x="1078" y="139" font-size="16" fill="#211a1a">task_id (FK -&gt; tasks.id)</text>
<text x="1078" y="163" font-size="16" fill="#211a1a">node_id (FK -&gt; nodes.id, nullable)</text>
<text x="1078" y="187" font-size="16" fill="#211a1a">status {queued|running|failed|completed}</text>
<text x="1078" y="211" font-size="16" fill="#211a1a">retry_count</text>
<text x="1078" y="235" font-size="16" fill="#211a1a">created_at</text>
<text x="1078" y="259" font-size="16" fill="#211a1a">started_at</text>
<text x="1078" y="283" font-size="16" fill="#211a1a">finished_at</text>
<rect x="1400" y="40" width="300" height="176" rx="18" fill="#fffaf2" stroke="#3c2f2f" stroke-width="2" />
<rect x="1400" y="40" width="300" height="46" rx="18" fill="#d66b4d" stroke="#3c2f2f" stroke-width="2" />
<rect x="1400" y="68" width="300" height="18" fill="#d66b4d" stroke="none" />
<text x="1418" y="69" font-size="24" font-weight="700" fill="#fffdf8">job_results</text>
<line x1="1400" y1="86" x2="1700" y2="86" stroke="#3c2f2f" stroke-width="2" />
<text x="1418" y="115" font-size="16" fill="#211a1a">id (PK)</text>
<text x="1418" y="139" font-size="16" fill="#211a1a">job_id (FK -&gt; jobs.id)</text>
<text x="1418" y="163" font-size="16" fill="#211a1a">output_path</text>
<text x="1418" y="187" font-size="16" fill="#211a1a">checksum</text>
<text x="1418" y="211" font-size="16" fill="#211a1a">created_at</text>
<rect x="1400" y="250" width="300" height="176" rx="18" fill="#fffaf2" stroke="#3c2f2f" stroke-width="2" />
<rect x="1400" y="250" width="300" height="46" rx="18" fill="#d66b4d" stroke="#3c2f2f" stroke-width="2" />
<rect x="1400" y="278" width="300" height="18" fill="#d66b4d" stroke="none" />
<text x="1418" y="279" font-size="24" font-weight="700" fill="#fffdf8">validations</text>
<line x1="1400" y1="296" x2="1700" y2="296" stroke="#3c2f2f" stroke-width="2" />
<text x="1418" y="325" font-size="16" fill="#211a1a">id (PK)</text>
<text x="1418" y="349" font-size="16" fill="#211a1a">job_id (FK -&gt; jobs.id)</text>
<text x="1418" y="373" font-size="16" fill="#211a1a">status {valid|invalid}</text>
<text x="1418" y="397" font-size="16" fill="#211a1a">reason</text>
<text x="1418" y="421" font-size="16" fill="#211a1a">created_at</text>
<rect x="1400" y="470" width="300" height="200" rx="18" fill="#fffaf2" stroke="#3c2f2f" stroke-width="2" />
<rect x="1400" y="470" width="300" height="46" rx="18" fill="#d66b4d" stroke="#3c2f2f" stroke-width="2" />
<rect x="1400" y="498" width="300" height="18" fill="#d66b4d" stroke="none" />
<text x="1418" y="499" font-size="24" font-weight="700" fill="#fffdf8">job_metrics</text>
<line x1="1400" y1="516" x2="1700" y2="516" stroke="#3c2f2f" stroke-width="2" />
<text x="1418" y="545" font-size="16" fill="#211a1a">id (PK)</text>
<text x="1418" y="569" font-size="16" fill="#211a1a">job_id (FK -&gt; jobs.id)</text>
<text x="1418" y="593" font-size="16" fill="#211a1a">cpu_usage</text>
<text x="1418" y="617" font-size="16" fill="#211a1a">gpu_usage</text>
<text x="1418" y="641" font-size="16" fill="#211a1a">memory_usage</text>
<text x="1418" y="665" font-size="16" fill="#211a1a">timestamp</text>
<rect x="1400" y="710" width="300" height="152" rx="18" fill="#fffaf2" stroke="#3c2f2f" stroke-width="2" />
<rect x="1400" y="710" width="300" height="46" rx="18" fill="#d66b4d" stroke="#3c2f2f" stroke-width="2" />
<rect x="1400" y="738" width="300" height="18" fill="#d66b4d" stroke="none" />
<text x="1418" y="739" font-size="24" font-weight="700" fill="#fffdf8">job_logs</text>
<line x1="1400" y1="756" x2="1700" y2="756" stroke="#3c2f2f" stroke-width="2" />
<text x="1418" y="785" font-size="16" fill="#211a1a">id (PK)</text>
<text x="1418" y="809" font-size="16" fill="#211a1a">job_id (FK -&gt; jobs.id)</text>
<text x="1418" y="833" font-size="16" fill="#211a1a">log_text</text>
<text x="1418" y="857" font-size="16" fill="#211a1a">created_at</text>
<rect x="40" y="510" width="300" height="176" rx="18" fill="#fffaf2" stroke="#3c2f2f" stroke-width="2" />
<rect x="40" y="510" width="300" height="46" rx="18" fill="#d66b4d" stroke="#3c2f2f" stroke-width="2" />
<rect x="40" y="538" width="300" height="18" fill="#d66b4d" stroke="none" />
<text x="58" y="539" font-size="24" font-weight="700" fill="#fffdf8">transactions</text>
<line x1="40" y1="556" x2="340" y2="556" stroke="#3c2f2f" stroke-width="2" />
<text x="58" y="585" font-size="16" fill="#211a1a">id (PK)</text>
<text x="58" y="609" font-size="16" fill="#211a1a">user_id (FK -&gt; users.id)</text>
<text x="58" y="633" font-size="16" fill="#211a1a">type {debit|credit}</text>
<text x="58" y="657" font-size="16" fill="#211a1a">amount</text>
<text x="58" y="681" font-size="16" fill="#211a1a">created_at</text>
<rect x="1060" y="320" width="300" height="176" rx="18" fill="#fffaf2" stroke="#3c2f2f" stroke-width="2" />
<rect x="1060" y="320" width="300" height="46" rx="18" fill="#d66b4d" stroke="#3c2f2f" stroke-width="2" />
<rect x="1060" y="348" width="300" height="18" fill="#d66b4d" stroke="none" />
<text x="1078" y="349" font-size="24" font-weight="700" fill="#fffdf8">job_costs</text>
<line x1="1060" y1="366" x2="1360" y2="366" stroke="#3c2f2f" stroke-width="2" />
<text x="1078" y="395" font-size="16" fill="#211a1a">id (PK)</text>
<text x="1078" y="419" font-size="16" fill="#211a1a">job_id (FK -&gt; jobs.id)</text>
<text x="1078" y="443" font-size="16" fill="#211a1a">cpu_cost</text>
<text x="1078" y="467" font-size="16" fill="#211a1a">gpu_cost</text>
<text x="1078" y="491" font-size="16" fill="#211a1a">total_cost</text>
<rect x="40" y="760" width="300" height="176" rx="18" fill="#fffaf2" stroke="#3c2f2f" stroke-width="2" />
<rect x="40" y="760" width="300" height="46" rx="18" fill="#d66b4d" stroke="#3c2f2f" stroke-width="2" />
<rect x="40" y="788" width="300" height="18" fill="#d66b4d" stroke="none" />
<text x="58" y="789" font-size="24" font-weight="700" fill="#fffdf8">payouts</text>
<line x1="40" y1="806" x2="340" y2="806" stroke="#3c2f2f" stroke-width="2" />
<text x="58" y="835" font-size="16" fill="#211a1a">id (PK)</text>
<text x="58" y="859" font-size="16" fill="#211a1a">provider_id (FK -&gt; users.id)</text>
<text x="58" y="883" font-size="16" fill="#211a1a">amount</text>
<text x="58" y="907" font-size="16" fill="#211a1a">status {pending|paid}</text>
<text x="58" y="931" font-size="16" fill="#211a1a">created_at</text>
</g>
<rect x="1760" y="40" width="470" height="204" rx="22" fill="#f4efe6" stroke="#3c2f2f" stroke-width="2" />
<text x="1780" y="74" font-size="24" font-weight="700" fill="#211a1a">Critical OLTP indexes</text>
<line x1="1776" y1="88" x2="2214" y2="88" stroke="#3c2f2f" stroke-width="2" />
<text x="1780" y="116" font-size="16" font-weight="400" fill="#211a1a">users(email) UNIQUE</text>
<text x="1780" y="140" font-size="16" font-weight="400" fill="#211a1a">jobs(task_id, status)</text>
<text x="1780" y="164" font-size="16" font-weight="400" fill="#211a1a">jobs(node_id)</text>
<text x="1780" y="188" font-size="16" font-weight="400" fill="#211a1a">job_metrics(job_id, timestamp)</text>
<text x="1780" y="212" font-size="16" font-weight="400" fill="#211a1a">transactions(user_id, created_at)</text>
<text x="1780" y="236" font-size="16" font-weight="400" fill="#211a1a">nodes(status)</text>
<rect x="1760" y="300" width="470" height="456" rx="22" fill="#f4efe6" stroke="#3c2f2f" stroke-width="2" />
<text x="1780" y="334" font-size="24" font-weight="700" fill="#211a1a">Transactional scenarios</text>
<line x1="1776" y1="348" x2="2214" y2="348" stroke="#3c2f2f" stroke-width="2" />
<text x="1780" y="376" font-size="17" font-weight="700" fill="#211a1a">Task launch</text>
<text x="1780" y="398" font-size="15" font-weight="400" fill="#211a1a">1. INSERT tasks</text>
<text x="1780" y="420" font-size="15" font-weight="400" fill="#211a1a">2. INSERT task_configs</text>
<text x="1780" y="442" font-size="15" font-weight="400" fill="#211a1a">3. INSERT jobs (batch)</text>
<text x="1780" y="474" font-size="17" font-weight="700" fill="#211a1a">Node assignment</text>
<text x="1780" y="496" font-size="15" font-weight="400" fill="#211a1a">1. UPDATE jobs SET node_id, status='running'</text>
<text x="1780" y="518" font-size="15" font-weight="400" fill="#211a1a">2. UPDATE nodes SET status='busy'</text>
<text x="1780" y="550" font-size="17" font-weight="700" fill="#211a1a">Job completion</text>
<text x="1780" y="572" font-size="15" font-weight="400" fill="#211a1a">1. UPDATE jobs SET status='completed', finished_at</text>
<text x="1780" y="594" font-size="15" font-weight="400" fill="#211a1a">2. INSERT job_results</text>
<text x="1780" y="616" font-size="15" font-weight="400" fill="#211a1a">3. INSERT validations</text>
<text x="1780" y="638" font-size="15" font-weight="400" fill="#211a1a">4. INSERT job_costs</text>
<text x="1780" y="660" font-size="15" font-weight="400" fill="#211a1a">5. UPDATE tasks.total_cost</text>
<text x="1780" y="692" font-size="17" font-weight="700" fill="#211a1a">Debit funds</text>
<text x="1780" y="714" font-size="15" font-weight="400" fill="#211a1a">1. INSERT transactions (debit)</text>
<text x="1780" y="736" font-size="15" font-weight="400" fill="#211a1a">2. UPDATE profiles.balance</text>
<rect x="1760" y="760" width="470" height="182" rx="22" fill="#f4efe6" stroke="#3c2f2f" stroke-width="2" />
<text x="1780" y="794" font-size="24" font-weight="700" fill="#211a1a">Design notes</text>
<line x1="1776" y1="808" x2="2214" y2="808" stroke="#3c2f2f" stroke-width="2" />
<text x="1780" y="836" font-size="16" font-weight="400" fill="#211a1a">parameters_json keeps PDE configuration flexible.</text>
<text x="1780" y="860" font-size="16" font-weight="400" fill="#211a1a">tasks and jobs are separated for horizontal scaling.</text>
<text x="1780" y="884" font-size="16" font-weight="400" fill="#211a1a">validations stays explicit to preserve trust in results.</text>
<text x="1780" y="908" font-size="16" font-weight="400" fill="#211a1a">node_specs is isolated so hardware can evolve independently.</text>
<text x="1780" y="932" font-size="16" font-weight="400" fill="#211a1a">job_metrics is modeled as time-series and can move to a TSDB later.</text>
</svg>